# xmcd
#
# Track frame offsets:
#	183
#	11105
#	23065
#	37273
#	48358
#	67883
#	86995
#	99678
#	109445
#	121348
#	132125
#	143115
#
# Disc length: 2141 seconds
#
# Revision: 3
# Processed by: cddbd v1.4PL0 Copyright (c) Steve Scherf et al.
# Submitted via: dBpowerAMP V4.0
#
DISCID=aa085b0c
DTITLE=Various Artist - Memories To Treasure Vol 4
DYEAR=1900
DGENRE=blues
TTITLE0=Gene Pittney -  Mecca
TTITLE1=The Drifters - weets For My Sweet
TTITLE2=The Plattners - Harbor Lights
TTITLE3=Timi Yuro - Hurt
TTITLE4=Trini Lopez - La Bamba
TTITLE5=Nat King Cole - The Trouble With You Is Me
TTITLE6=Marry Wells - My Guy
TTITLE7=Jimmy Gilmer - Sugar Shack
TTITLE8=Bobby Rydell - Volare
TTITLE9=Ray Charles - I Wonder Who's Kissing Her Now
TTITLE10=Frankie Avalon - Venus
TTITLE11=Ruth Brown - Brown Sugar
EXTD=
EXTT0=
EXTT1=
EXTT2=
EXTT3=
EXTT4=
EXTT5=
EXTT6=
EXTT7=
EXTT8=
EXTT9=
EXTT10=
EXTT11=
PLAYORDER=
